HIERARCHY
ROOT Hips
{
    OFFSET   0.000000   0.000000   0.000000
    CHANNELS 6 Xposition Yposition Zposition Zrotation Xrotation Yrotation
    JOINT Chest
    {
        OFFSET   0.000000   8.007230   0.000000
        CHANNELS 3 Zrotation Xrotation Yrotation
        JOINT Chest2
        {
            OFFSET   0.000000  22.077100   0.000000
            CHANNELS 3 Zrotation Xrotation Yrotation
            JOINT Neck
            {
                OFFSET   0.000000  23.254800   0.000000
                CHANNELS 3 Zrotation Xrotation Yrotation
                JOINT Head
                {
                    OFFSET   0.000010  14.370000   1.956600
                    CHANNELS 3 Zrotation Xrotation Yrotation
                    End Site
                    {
                        OFFSET   0.000000  19.566000   0.000000
                    }
                }
            }
            JOINT LeftCollar
            {
                OFFSET   3.911900  19.017000  -0.467062
                CHANNELS 3 Zrotation Xrotation Yrotation
                JOINT LeftShoulder
                {
                    OFFSET  10.383700   0.000000   0.000000
                    CHANNELS 3 Zrotation Xrotation Yrotation
                    JOINT LeftElbow
                    {
                        OFFSET  26.662100   0.001193   0.000835
                        CHANNELS 3 Zrotation Xrotation Yrotation
                        JOINT LeftWrist
                        {
                            OFFSET  28.869000  -0.000058  -0.000075
                            CHANNELS 3 Zrotation Xrotation Yrotation
                            JOINT LeftFinger0
                            {
                                OFFSET   2.044660  -2.323460   3.252850
                                CHANNELS 3 Zrotation Xrotation Yrotation
                                JOINT LeftFinger01
                                {
                                    OFFSET   3.088130   0.000000   0.000000
                                    CHANNELS 3 Zrotation Xrotation Yrotation
                                    JOINT LeftFinger02
                                    {
                                        OFFSET   2.639450   0.000000   0.000000
                                        CHANNELS 3 Zrotation Xrotation Yrotation
                                        End Site
                                        {
                                            OFFSET   2.582190   0.000000   0.000000
                                        }
                                    }
                                }
                            }
                            JOINT LeftFinger1
                            {
                                OFFSET   8.364480   0.000000   3.252850
                                CHANNELS 3 Zrotation Xrotation Yrotation
                                JOINT LeftFinger11
                                {
                                    OFFSET   4.646920   0.000000   0.000000
                                    CHANNELS 3 Zrotation Xrotation Yrotation
                                    JOINT LeftFinger12
                                    {
                                        OFFSET   2.323460   0.000000   0.000000
                                        CHANNELS 3 Zrotation Xrotation Yrotation
                                        End Site
                                        {
                                            OFFSET   2.273050   0.000000   0.000000
                                        }
                                    }
                                }
                            }
                            JOINT LeftFinger2
                            {
                                OFFSET   8.364490   0.000016   1.078090
                                CHANNELS 3 Zrotation Xrotation Yrotation
                                JOINT LeftFinger21
                                {
                                    OFFSET   5.111620   0.000000   0.000000
                                    CHANNELS 3 Zrotation Xrotation Yrotation
                                    JOINT LeftFinger22
                                    {
                                        OFFSET   2.788150   0.000012   0.000000
                                        CHANNELS 3 Zrotation Xrotation Yrotation
                                        End Site
                                        {
                                            OFFSET   2.727660   0.000000   0.000000
                                        }
                                    }
                                }
                            }
                            JOINT LeftFinger3
                            {
                                OFFSET   7.899780   0.000014  -1.078090
                                CHANNELS 3 Zrotation Xrotation Yrotation
                                JOINT LeftFinger31
                                {
                                    OFFSET   4.646930   0.000000   0.000000
                                    CHANNELS 3 Zrotation Xrotation Yrotation
                                    JOINT LeftFinger32
                                    {
                                        OFFSET   2.323470   0.000000   0.000000
                                        CHANNELS 3 Zrotation Xrotation Yrotation
                                        End Site
                                        {
                                            OFFSET   2.273050   0.000000   0.000000
                                        }
                                    }
                                }
                            }
                            JOINT LeftFinger4
                            {
                                OFFSET   7.435090   0.000000  -3.252850
                                CHANNELS 3 Zrotation Xrotation Yrotation
                                JOINT LeftFinger41
                                {
                                    OFFSET   3.717550   0.000000   0.000000
                                    CHANNELS 3 Zrotation Xrotation Yrotation
                                    JOINT LeftFinger42
                                    {
                                        OFFSET   1.858770   0.000000   0.000000
                                        CHANNELS 3 Zrotation Xrotation Yrotation
                                        End Site
                                        {
                                            OFFSET   1.818440   0.000000   0.000000
                                        }
                                    }
                                }
                            }
                        }
                    }
                }
            }
            JOINT RightCollar
            {
                OFFSET  -3.911900  19.017000  -0.467063
                CHANNELS 3 Zrotation Xrotation Yrotation
                JOINT RightShoulder
                {
                    OFFSET -10.383700   0.000023   0.000000
                    CHANNELS 3 Zrotation Xrotation Yrotation
                    JOINT RightElbow
                    {
                        OFFSET -26.662100   0.001246   0.001011
                        CHANNELS 3 Zrotation Xrotation Yrotation
                        JOINT RightWrist
                        {
                            OFFSET -28.869000  -0.000026  -0.000078
                            CHANNELS 3 Zrotation Xrotation Yrotation
                            JOINT RightFinger0
                            {
                                OFFSET  -2.044660  -2.323490   3.252850
                                CHANNELS 3 Zrotation Xrotation Yrotation
                                JOINT RightFinger01
                                {
                                    OFFSET  -3.088130   0.000000   0.000000
                                    CHANNELS 3 Zrotation Xrotation Yrotation
                                    JOINT RightFinger02
                                    {
                                        OFFSET  -2.639460   0.000000   0.000000
                                        CHANNELS 3 Zrotation Xrotation Yrotation
                                        End Site
                                        {
                                            OFFSET  -2.582190   0.000000   0.000000
                                        }
                                    }
                                }
                            }
                            JOINT RightFinger1
                            {
                                OFFSET  -8.364480   0.000000   3.252850
                                CHANNELS 3 Zrotation Xrotation Yrotation
                                JOINT RightFinger11
                                {
                                    OFFSET  -4.646920   0.000000   0.000000
                                    CHANNELS 3 Zrotation Xrotation Yrotation
                                    JOINT RightFinger12
                                    {
                                        OFFSET  -2.323470   0.000000   0.000000
                                        CHANNELS 3 Zrotation Xrotation Yrotation
                                        End Site
                                        {
                                            OFFSET  -2.273050   0.000000   0.000000
                                        }
                                    }
                                }
                            }
                            JOINT RightFinger2
                            {
                                OFFSET  -8.364480   0.000000   1.078090
                                CHANNELS 3 Zrotation Xrotation Yrotation
                                JOINT RightFinger21
                                {
                                    OFFSET  -5.111620   0.000000   0.000000
                                    CHANNELS 3 Zrotation Xrotation Yrotation
                                    JOINT RightFinger22
                                    {
                                        OFFSET  -2.788160   0.000000   0.000000
                                        CHANNELS 3 Zrotation Xrotation Yrotation
                                        End Site
                                        {
                                            OFFSET  -2.727660   0.000000   0.000000
                                        }
                                    }
                                }
                            }
                            JOINT RightFinger3
                            {
                                OFFSET  -7.899780   0.000000  -1.078090
                                CHANNELS 3 Zrotation Xrotation Yrotation
                                JOINT RightFinger31
                                {
                                    OFFSET  -4.646930   0.000000   0.000000
                                    CHANNELS 3 Zrotation Xrotation Yrotation
                                    JOINT RightFinger32
                                    {
                                        OFFSET  -2.323470   0.000000   0.000000
                                        CHANNELS 3 Zrotation Xrotation Yrotation
                                        End Site
                                        {
                                            OFFSET  -2.273050   0.000000   0.000000
                                        }
                                    }
                                }
                            }
                            JOINT RightFinger4
                            {
                                OFFSET  -7.435090   0.000000  -3.252850
                                CHANNELS 3 Zrotation Xrotation Yrotation
                                JOINT RightFinger41
                                {
                                    OFFSET  -3.717550   0.000000   0.000000
                                    CHANNELS 3 Zrotation Xrotation Yrotation
                                    JOINT RightFinger42
                                    {
                                        OFFSET  -1.858760   0.000000   0.000000
                                        CHANNELS 3 Zrotation Xrotation Yrotation
                                        End Site
                                        {
                                            OFFSET  -1.818440   0.000000   0.000000
                                        }
                                    }
                                }
                            }
                        }
                    }
                }
            }
        }
    }
    JOINT LeftHip
    {
        OFFSET   9.783010   0.000000   0.000000
        CHANNELS 3 Zrotation Xrotation Yrotation
        JOINT LeftKnee
        {
            OFFSET   0.000073 -41.789100   0.001749
            CHANNELS 3 Zrotation Xrotation Yrotation
            JOINT LeftAnkle
            {
                OFFSET   0.000111 -41.133200  -0.000179
                CHANNELS 3 Zrotation Xrotation Yrotation
                JOINT LeftToe
                {
                    OFFSET   0.000000  -6.358960  14.674500
                    CHANNELS 3 Zrotation Xrotation Yrotation
                    End Site
                    {
                        OFFSET   0.000000   0.000000   3.913200
                    }
                }
            }
        }
    }
    JOINT RightHip
    {
        OFFSET  -9.783010   0.000000   0.000000
        CHANNELS 3 Zrotation Xrotation Yrotation
        JOINT RightKnee
        {
            OFFSET   0.000424 -41.789200   0.005205
            CHANNELS 3 Zrotation Xrotation Yrotation
            JOINT RightAnkle
            {
                OFFSET   0.000000 -41.133200  -0.000155
                CHANNELS 3 Zrotation Xrotation Yrotation
                JOINT RightToe
                {
                    OFFSET   0.000000  -6.358960  14.674500
                    CHANNELS 3 Zrotation Xrotation Yrotation
                    End Site
                    {
                        OFFSET   0.000000   0.000000   3.913200
                    }
                }
            }
        }
    }
}
MOTION
Frames: 4
Frame Time:   0.016667
 -7.602270  88.860700   1.625430  -3.810120 -20.151000  -1.081860   1.696960   9.455340   1.472980   3.210190  18.948100   2.713880   5.473810   1.594400  -0.151762   9.025120   3.144810  -8.695680  -3.572420  -4.517450  -1.256270 -74.030400  24.020600  -4.786050  -1.487910  -6.530560 -12.920300  10.623900  -5.805590  -0.634839  38.929500  23.001300 -56.028600 -23.915700   0.000000   0.000742  -6.957850  -0.008093   0.002429 -22.196800   3.817750  -9.276590 -18.414700   0.004648   0.003319 -12.890300   0.004251  -0.000602 -24.445000   0.222004  -0.487545 -24.446700   0.004715  -0.004256 -16.281500   0.005824  -0.003751 -23.905400   0.217533  -0.489573 -23.907100  -0.001136  -0.001214 -15.922100   0.002137   0.002291 -23.753400   0.216170  -0.490027 -35.632700   0.001426  -0.001744 -23.731300   0.002288  -0.000190   5.447890  -5.413780   7.576680  36.892600   2.673020  68.755200 -39.039900 -27.828600  53.189800 -16.505600 -12.374500  25.154300 -57.854700  35.937200  62.745700 -14.125600  -0.002190  -0.000995 -12.062800  -0.000728  -0.001887   6.363750   1.726650  15.120200   5.391360  -0.003940  -0.001954   3.773940   0.002242  -0.002020  89.003400   0.000682   0.002519  96.990100   0.004588  -0.000684  72.742500   0.001121  -0.003250  88.996200  -4.999730  -0.087186  96.318600   0.003470  -0.001723  72.238900   0.000819  -0.003057  88.976700  -9.998410  -0.182008 110.000000  -0.001213  -0.002356  80.000000  -0.003059   0.002312   9.045110  15.579300   2.441160   3.280560  12.867800   6.810400  -7.273210  -7.585560   0.470187  -0.000000   0.000000  -0.000000   8.744410  20.956200  -3.204750   0.788253   2.901220  -7.620040  -2.427960  -6.004800  -1.828180   0.000000   0.000000   0.000000
 -7.599580  88.866000   1.659620  -3.747420 -20.202600  -0.951446   1.672840   9.445790   1.494220   3.157470  18.929000   2.761530   5.474050   1.558440  -0.149293   9.011060   3.073730  -8.554050  -3.604000  -4.499130  -1.287270 -74.074700  23.618000  -4.669080  -1.397720  -6.164510 -13.149500  10.858300  -5.995110  -0.651663  38.827400  22.880700 -55.841000 -24.079100   0.000000   0.000767  -7.039570  -0.008187   0.002445 -22.291700   3.817500  -9.223530 -18.491500   0.004620   0.003326 -12.944000   0.004246  -0.000568 -24.605900   0.143124  -0.311708 -24.607300   0.004780  -0.004263 -16.388500   0.005917  -0.003752 -24.019100   0.139875  -0.313170 -24.020500  -0.001140  -0.001231 -15.997700   0.002193   0.002294 -23.923200   0.139316  -0.313148 -35.887000   0.001369  -0.001723 -23.900700   0.002237  -0.000199   5.397060  -5.340750   7.502310  37.046200   2.341240  68.630700 -38.975500 -27.968200  53.334700 -16.379200 -12.541500  24.912100 -57.975100  35.990600  62.672500 -14.096800  -0.001984  -0.001013 -12.048400  -0.000640  -0.001921   6.316130   1.704730  15.047700   5.351800  -0.003714  -0.001778   3.746240   0.002714  -0.001914  89.003300   0.000746   0.001945  96.936600   0.004368  -0.000529  72.702400   0.001347  -0.002974  88.996200  -4.999770  -0.087461  96.240900   0.003300  -0.001591  72.180600   0.000871  -0.002909  88.976500  -9.998350  -0.182099 110.000000  -0.001177  -0.002352  80.000000  -0.003045   0.002231   8.996090  15.627700   2.442490   3.312670  12.826500   6.768340  -7.253280  -7.535840   0.401703  -0.000000   0.000000  -0.000000   8.722770  20.985500  -3.063880   0.792841   2.967960  -7.845080  -2.402460  -6.072520  -1.838700   0.000000   0.000000   0.000000
 -7.582650  88.872500   1.688990  -3.698450 -20.238300  -0.797857   1.680710   9.433110   1.471400   3.177790  18.903300   2.713680   5.399720   1.531360  -0.144687   8.883920   3.022320  -8.390580  -3.653410  -4.500040  -1.282370 -74.175600  23.289700  -4.516820  -1.326420  -5.921530 -13.353600  10.958200  -6.370690  -0.629696  38.798700  22.914500 -55.871400 -24.191100   0.000000   0.000803  -7.095530  -0.008284   0.002478 -22.419700   3.789960  -9.092570 -18.590900   0.004591   0.003331 -13.013600   0.004247  -0.000535 -24.736100   0.069374  -0.150768 -24.737100   0.004847  -0.004267 -16.474900   0.006005  -0.003758 -24.153100   0.067727  -0.151485 -24.154000  -0.001144  -0.001254 -16.086600   0.002247   0.002298 -24.106800   0.067451  -0.151357 -36.161600   0.001311  -0.001701 -24.083600   0.002188  -0.000207   5.339120  -5.283370   7.489310  36.903200   2.224470  68.597900 -39.044600 -28.311000  53.192900 -16.466200 -12.563400  24.794000 -58.057100  36.100000  62.991700 -14.285300  -0.001803  -0.001027 -12.142700  -0.000553  -0.001946   6.328030   1.721970  15.140100   5.364180  -0.003491  -0.001618   3.754910   0.003184  -0.001816  89.003100   0.000808   0.001371  96.987100   0.004140  -0.000335  72.740200   0.001572  -0.002685  88.996200  -4.999810  -0.087730  96.228000   0.003093  -0.001465  72.171000   0.000894  -0.002740  88.976400  -9.998290  -0.182185 110.000000  -0.001135  -0.002348  80.000000  -0.003035   0.002150   8.965050  15.625200   2.501020   3.352170  12.825400   6.681780  -7.230780  -7.510760   0.295711  -0.000000   0.000000  -0.000000   8.724080  21.010900  -2.868550   0.799643   3.008660  -8.082940  -2.381010  -6.128430  -1.935810   0.000000   0.000000   0.000000
 -7.549360  88.880300   1.713660  -3.647080 -20.256600  -0.631818   1.696850   9.418740   1.426180   3.218700  18.873800   2.618940   5.273290   1.514080  -0.139728   8.679760   2.992690  -8.228840  -3.706820  -4.505820  -1.266400 -74.298700  23.020300  -4.366650  -1.289440  -5.811930 -13.520300  10.980900  -6.766970  -0.607749  38.767200  23.051000 -56.022200 -24.288600   0.000000   0.000840  -7.144270  -0.008382   0.002511 -22.545300   3.751310  -8.956290 -18.687000   0.004563   0.003336 -13.080900   0.004248  -0.000503 -24.851400   0.005855  -0.013119 -24.852000   0.004915  -0.004270 -16.551400   0.006093  -0.003764 -24.279700   0.005709  -0.013163 -24.280300  -0.001148  -0.001275 -16.170700   0.002300   0.002303 -24.278000   0.005556  -0.013047 -36.417900   0.001252  -0.001680 -24.254300   0.002141  -0.000216   5.285460  -5.237300   7.487000  36.777400   2.197050  68.578300 -39.217100 -28.707400  52.915600 -16.556300 -12.584200  24.686400 -58.140700  36.207100  63.312000 -14.473900  -0.001652  -0.001043 -12.237000  -0.000467  -0.001972   6.357710   1.739190  15.232500   5.391940  -0.003271  -0.001472   3.774350   0.003656  -0.001727  89.002900   0.000870   0.000794  97.043600   0.003902  -0.000107  72.782600   0.001797  -0.002395  88.996200  -4.999850  -0.087996  96.216500   0.002860  -0.001337  72.162400   0.000898  -0.002550  88.976300  -9.998240  -0.182265 110.000000  -0.001092  -0.002343  80.000000  -0.003023   0.002069   8.936120  15.611500   2.573540   3.394370  12.827400   6.580680  -7.206100  -7.498520   0.187605  -0.000000   0.000000   0.000000   8.726630  21.032000  -2.679280   0.809362   3.034030  -8.302570  -2.362410  -6.177530  -2.078760  -0.000000   0.000000   0.000000
